<?xml version="1.0" ?><!DOCTYPE svg  PUBLIC '-//W3C//DTD SVG 1.1//EN'  'http://www.w3.org/Graphics/SVG/1.1/DTD/svg11.dtd'><svg enable-background="new 0 0 512 512" height="512px" id="Layer_1" version="1.1" viewBox="0 0 512 512" width="512px" xml:space="preserve" xmlns="http://www.w3.org/2000/svg" xmlns:xlink="http://www.w3.org/1999/xlink"><g><path clip-rule="evenodd" d="M359.571,393.565c13.142-11.789,37.645-32.636,51.71-44.425   c4.53-4.529,3.624-11.79,0-17.677c-12.253-16.771-27.224-28.106-27.224-59.384V164.211c0-44.417,0-84.306-31.3-114.669   C326.912,24.612,287.893,16,255.232,16c-63.506,0-134.717,24.024-149.688,102.888c-1.813,8.159,4.54,13.14,10.431,14.498   l64.867,7.253c5.899-0.453,9.977-7.253,11.345-13.14c5.438-27.194,28.12-40.342,53.975-40.342   c44.013,0,41.731,43.511,41.731,74.788c-39.013,4.529-85.729,7.253-122.474,23.118c-41.731,18.129-71.21,55.293-71.21,109.688   c0,69.8,43.997,105.152,100.697,105.152c47.623,0,73.478-11.79,110.224-49.406c12.25,17.676,18.61,29.918,39.02,45.783   C349.133,399.905,355.478,397.188,359.571,393.565L359.571,393.565z M233.003,332.37c-25.401,0-40.817-19.035-40.817-48.049   c0-57.104,47.169-69.346,95.706-69.346c0,29.466,2.281,60.289-12.689,86.117C265.663,318.315,253.42,332.37,233.003,332.37   L233.003,332.37z" fill="#0D2636" fill-rule="evenodd"/><path clip-rule="evenodd" d="M454.815,419.846c-63.036,26.296-131.544,38.975-193.685,38.975   c-92.08,0-180.987-24.922-253.104-66.613c-6.352-4.092-10.892,2.717-5.899,7.246C68.806,459.742,157.253,496,255.232,496   c70.32,0,151.5-21.767,207.757-63.46C472.052,425.749,463.896,415.77,454.815,419.846L454.815,419.846z M420.796,403.98   c17.689-2.264,58.07-7.245,65.32,2.264c7.267,9.073-8.157,46.69-14.971,63.914c-1.813,4.98,2.719,6.807,7.267,3.169   c29.925-25.374,37.646-77.95,31.754-85.664c-6.36-7.246-58.976-14.054-90.729,8.619   C414.452,399.905,415.359,404.434,420.796,403.98L420.796,403.98z" fill="#D6922D" fill-rule="evenodd"/></g></svg>