<?xml version="1.0" encoding="UTF-8" standalone="no"?>
<!-- Created with Inkscape (http://www.inkscape.org/) -->

<svg
   xmlns:dc="http://purl.org/dc/elements/1.1/"
   xmlns:cc="http://creativecommons.org/ns#"
   xmlns:rdf="http://www.w3.org/1999/02/22-rdf-syntax-ns#"
   xmlns:svg="http://www.w3.org/2000/svg"
   xmlns="http://www.w3.org/2000/svg"
   xmlns:sodipodi="http://sodipodi.sourceforge.net/DTD/sodipodi-0.dtd"
   xmlns:inkscape="http://www.inkscape.org/namespaces/inkscape"
   version="1.0"
   width="928.3916"
   height="216.54102"
   id="svg1936"
   inkscape:version="0.91 r13725"
   sodipodi:docname="Amazon Prime logo full.svg">
  <metadata
     id="metadata4211">
    <rdf:RDF>
      <cc:Work
         rdf:about="">
        <dc:format>image/svg+xml</dc:format>
        <dc:type
           rdf:resource="http://purl.org/dc/dcmitype/StillImage" />
        <dc:title></dc:title>
      </cc:Work>
    </rdf:RDF>
  </metadata>
  <sodipodi:namedview
     pagecolor="#ffffff"
     bordercolor="#666666"
     borderopacity="1"
     objecttolerance="10"
     gridtolerance="10"
     guidetolerance="10"
     inkscape:pageopacity="0"
     inkscape:pageshadow="2"
     inkscape:window-width="1366"
     inkscape:window-height="705"
     id="namedview4209"
     showgrid="false"
     inkscape:zoom="0.62057398"
     inkscape:cx="538.16712"
     inkscape:cy="125.79141"
     inkscape:window-x="-8"
     inkscape:window-y="-8"
     inkscape:window-maximized="1"
     inkscape:current-layer="svg1936"
     fit-margin-top="0"
     fit-margin-left="0"
     fit-margin-right="0"
     fit-margin-bottom="0" />
  <defs
     id="defs1938">
    <filter
       style="color-interpolation-filters:sRGB"
       inkscape:label="Invert"
       id="filter4224">
      <feColorMatrix
         type="hueRotate"
         values="180"
         result="color1"
         id="feColorMatrix4226" />
      <feColorMatrix
         values="-1 0 0 0 1 0 -1 0 0 1 0 0 -1 0 1 -0.21 -0.72 -0.07 2 0 "
         result="fbSourceGraphic"
         id="feColorMatrix4228" />
      <feColorMatrix
         result="fbSourceGraphicAlpha"
         in="fbSourceGraphic"
         values="0 0 0 -1 0 0 0 0 -1 0 0 0 0 -1 0 0 0 0 1 0"
         id="feColorMatrix4230" />
      <feColorMatrix
         id="feColorMatrix4232"
         type="hueRotate"
         values="180"
         result="color1"
         in="fbSourceGraphic" />
      <feColorMatrix
         id="feColorMatrix4234"
         values="-1 0 0 0 1 0 -1 0 0 1 0 0 -1 0 1 -0.21 -0.72 -0.07 2 0 "
         result="color2" />
    </filter>
  </defs>
  <g
     transform="translate(144.53434,-649.87719)"
     id="layer1">
    <g
       transform="translate(7.081691,7.081144)"
       id="g1967">
      <path
         d="m 222.02642,784.73404 c -34.99948,25.79739 -85.72909,39.56123 -129.406339,39.56123 -61.24255,0 -116.37656,-22.65135 -158.08757,-60.32496 -3.2771,-2.96252 -0.34083,-6.9999 3.59171,-4.69283 45.01431,26.19064 100.67269,41.94697 158.16623,41.94697 38.774689,0 81.429499,-8.02237 120.649899,-24.67006 5.92501,-2.51683 10.87999,3.88009 5.08607,8.17965"
         id="path8"
         style="fill:#ff9900;fill-opacity:1;fill-rule:evenodd;stroke:none"
         inkscape:connector-curvature="0" />
      <path
         d="m 236.57678,768.08635 c -4.45688,-5.71527 -29.57261,-2.70033 -40.84585,-1.36327 -3.43442,0.41947 -3.95874,-2.56925 -0.86517,-4.71905 20.00346,-14.07844 52.82696,-10.01483 56.65462,-5.2958 3.82764,4.74526 -0.99624,37.64741 -19.79373,53.35128 -2.88385,2.41195 -5.63662,1.12734 -4.35198,-2.07113 4.2209,-10.53917 13.68519,-34.16054 9.20211,-39.90203"
         id="path10"
         style="fill:#ff9900;fill-opacity:1;fill-rule:evenodd;stroke:none"
         inkscape:connector-curvature="0" />
      <path
         d="m 196.51744,662.61598 0,-13.68519 c 0,-2.07113 1.57301,-3.46062 3.46062,-3.46062 l 61.26875,0 c 1.96628,0 3.53929,1.41571 3.53929,3.46062 l 0,11.71893 c -0.0262,1.96626 -1.67788,4.53551 -4.61418,8.59912 l -31.74859,45.32893 c 11.79759,-0.28837 24.25059,1.46814 34.94706,7.49802 2.41195,1.36327 3.06737,3.35575 3.25089,5.32203 l 0,14.60278 c 0,1.99248 -2.20222,4.32576 -4.5093,3.1198 -18.84992,-9.88376 -43.887,-10.95865 -64.72939,0.10487 -2.12356,1.15354 -4.35199,-1.15354 -4.35199,-3.14602 l 0,-13.86871 c 0,-2.22843 0.0262,-6.02989 2.25463,-9.41186 l 36.78224,-52.74829 -32.01076,0 c -1.96626,0 -3.53927,-1.38948 -3.53927,-3.43441"
         id="path12"
         style="fill:#221f1f;fill-rule:evenodd;stroke:none"
         inkscape:connector-curvature="0" />
      <path
         d="m -26.981169,748.00424 -18.64017,0 c -1.78273,-0.13107 -3.19845,-1.46813 -3.32954,-3.17224 l 0,-95.66524 c 0,-1.91383 1.59923,-3.43442 3.59171,-3.43442 l 17.38176,0 c 1.80898,0.0786 3.25089,1.46814 3.38199,3.19845 l 0,12.50545 0.34082,0 c 4.53551,-12.08598 13.05597,-17.7226 24.53896043,-17.7226 11.66648957,0 18.95476957,5.63662 24.19813957,17.7226 4.5093,-12.08598 14.76008,-17.7226 25.74495,-17.7226 7.81262,0 16.35931,3.22467 21.57646,10.46052 5.89879,8.04857 4.69281,19.74128 4.69281,29.99208 l -0.02621,60.37739 c 0,1.91383 -1.59923,3.46061 -3.59171,3.46061 l -18.61397,0 c -1.86138,-0.13107 -3.35574,-1.62543 -3.35574,-3.46061 l 0,-50.70338 c 0,-4.03739 0.36702,-14.10466 -0.52434,-17.93233 -1.38949,-6.42311 -5.55797,-8.23209 -10.95865,-8.23209 -4.5093,0 -9.22833,3.01494 -11.14216,7.83885 -1.91383,4.8239 -1.73031,12.89867 -1.73031,18.32557 l 0,50.70338 c 0,1.91383 -1.59923,3.46061 -3.59171,3.46061 l -18.6139496,0 c -1.88761,-0.13107 -3.35575997,-1.62543 -3.35575997,-3.46061 l -0.02621,-50.70338 c 0,-10.67025 1.75650997,-26.37415 -11.48298043,-26.37415 -13.39682,0 -12.87248,15.31063 -12.87248,26.37415 l 0,50.70338 c 0,1.91383 -1.59923,3.46061 -3.59171,3.46061"
         id="path14"
         style="fill:#221f1f;fill-rule:evenodd;stroke:none"
         inkscape:connector-curvature="0" />
      <path
         d="m 317.53439,643.71364 c 27.65877,0 42.62858,23.75246 42.62858,53.95427 0,29.17934 -16.54284,52.32881 -42.62858,52.32881 -27.16066,0 -41.94697,-23.75246 -41.94697,-53.35127 0,-29.78234 14.96983,-52.93181 41.94697,-52.93181 m 0.15729,19.53156 c -13.73761,0 -14.60278,18.71881 -14.60278,30.38532 0,11.69271 -0.18352,36.65114 14.44549,36.65114 14.44548,0 15.12712,-20.13452 15.12712,-32.40403 0,-8.07477 -0.34082,-17.72257 -2.779,-25.3779 -2.09735,-6.65906 -6.26581,-9.25453 -12.19083,-9.25453"
         id="path16"
         style="fill:#221f1f;fill-rule:evenodd;stroke:none"
         inkscape:connector-curvature="0" />
      <path
         d="m 396.02762,748.00424 -18.56152,0 c -1.86141,-0.13107 -3.35577,-1.62543 -3.35577,-3.46061 l -0.0262,-95.69149 c 0.1573,-1.75653 1.7041,-3.1198 3.59171,-3.1198 l 17.27691,0 c 1.62543,0.0786 2.96249,1.17976 3.32954,2.67412 l 0,14.62899 0.3408,0 c 5.21717,-13.0822 12.53165,-19.32181 25.40412,-19.32181 8.36317,0 16.51662,3.01494 21.75999,11.27324 4.87633,7.65532 4.87633,20.5278 4.87633,29.78233 l 0,60.22011 c -0.20973,1.67786 -1.75653,3.01492 -3.59169,3.01492 l -18.69262,0 c -1.70411,-0.13107 -3.11982,-1.38948 -3.30332,-3.01492 l 0,-51.96179 c 0,-10.46052 1.20597,-25.77117 -11.66651,-25.77117 -4.5355,0 -8.70399,3.04117 -10.77512,7.65532 -2.62167,5.84637 -2.96249,11.66651 -2.96249,18.11585 l 0,51.5161 c -0.0262,1.91383 -1.65166,3.46061 -3.64414,3.46061"
         id="path18"
         style="fill:#221f1f;fill-rule:evenodd;stroke:none"
         inkscape:connector-curvature="0" />
      <path
         d="m 462.33002,740.40137 c 0,-4.82391 4.11603,-8.70399 9.17588,-8.70399 5.05985,0 9.17589,3.88008 9.17589,8.70399 0,4.79767 -4.11604,8.73021 -9.17589,8.73021 -5.05985,0 -9.17588,-3.93254 -9.17588,-8.73021"
         id="path20"
         style="fill:#221f1f;fill-rule:evenodd;stroke:none"
         inkscape:connector-curvature="0" />
      <path
         d="m 659.82149,748.03047 c -1.94004,-0.0787 -3.46062,-1.57301 -3.46062,-3.46062 l 0,-95.66526 c 0.10487,-1.70411 1.54679,-3.04117 3.32954,-3.14602 l 6.84259,0 c 1.88762,0 3.40819,1.36326 3.56549,3.14602 l 0,13.94736 c 4.87634,-11.06352 13.94737,-19.71508 25.40413,-19.71508 l 0.70785,0 0.68164,0 c 12.16461,0 21.05212,8.96616 24.35545,21.99593 5.16471,-12.87247 14.86495,-21.99593 27.65877,-21.99593 l 0.65542,0 0.76029,0 c 9.04481,0 17.7488,5.82014 22.2581,14.68143 4.35199,8.46804 4.19469,19.74128 4.19469,29.20556 l -0.0262,57.54599 c 0.0262,1.83516 -1.46814,3.32952 -3.32953,3.46062 l -8.17966,0 c -1.78275,-0.0787 -3.22467,-1.33706 -3.46062,-2.98872 l 0,-58.01789 c 0,-6.84258 0.34082,-14.10466 -2.43817,-20.34427 -2.83142,-6.37069 -8.25831,-10.35565 -14.07844,-10.64402 -6.50178,0.31459 -12.47922,5.05985 -16.35932,11.45676 -5.03363,8.25829 -4.85011,15.70387 -4.85011,25.35168 l 0,52.25016 c -0.23595,1.57301 -1.62545,2.8052 -3.32954,2.9363 l -8.12722,0 c -1.94005,-0.0787 -3.48684,-1.57301 -3.48684,-3.46062 l -0.0524,-61.37365 c 0,-5.63662 -0.34082,-12.26948 -2.93628,-17.32933 -3.01494,-5.76769 -8.41561,-9.54293 -14.07845,-9.8313 -5.87257,0.34082 -11.79758,4.8239 -15.31063,10.04105 -4.53552,6.65906 -5.40067,14.89115 -5.40067,23.3592 l 0,55.13403 c 0,1.83516 -1.49436,3.32952 -3.35576,3.46062 l -8.15344,0"
         id="path22"
         style="fill:#221f1f;fill-rule:evenodd;stroke:none"
         inkscape:connector-curvature="0" />
      <path
         d="m 603.66501,750.02295 c -26.45279,0 -38.30281,-26.97714 -38.30281,-53.95427 0,-28.36663 13.92115,-52.93181 40.55746,-52.93181 l 0.68164,0 0.73407,0 c 25.90224,0 38.80093,26.16442 38.80093,53.14155 0,28.57635 -14.28818,53.74453 -41.08179,53.74453 l -0.68164,0 -0.70786,0 m 1.94005,-13.0822 c 8.70399,-0.2884 15.5728,-5.68907 19.63642,-14.68143 3.64414,-8.0748 4.35199,-17.32935 4.35199,-26.19064 0,-9.64781 -1.04867,-19.71506 -5.58419,-27.97338 -4.06361,-7.20963 -11.03729,-11.79756 -18.43044,-12.05973 -8.23209,0.28837 -15.59902,5.87256 -19.29559,14.47168 -3.32954,7.4456 -4.352,17.32933 -4.352,25.56143 0,9.25455 1.20597,19.95102 5.03363,27.9996 3.7228,7.6291 10.87999,12.58407 18.64018,12.87247"
         id="path24"
         style="fill:#221f1f;fill-rule:evenodd;stroke:none"
         inkscape:connector-curvature="0" />
      <path
         d="m 521.0033,736.52128 c 11.87624,-0.36705 18.11584,-9.88375 20.68509,-22.20568 0.52434,-1.54679 1.7041,-2.72655 3.43441,-2.72655 l 7.83884,-0.0262 c 1.86139,0.0786 3.56549,1.49436 3.40819,3.22469 -3.61793,20.99967 -16.28066,35.23543 -34.31785,35.23543 l -0.73407,0 -0.68164,0 c -26.26929,0 -37.59495,-26.37415 -37.59495,-53.14156 0,-26.55764 11.48298,-53.74452 37.75225,-53.74452 l 0.70785,0 0.70786,0 c 18.24692,0 31.25048,14.05223 34.0819,35.05193 0,1.57301 -1.46815,2.93627 -3.19846,3.11979 l -8.20587,-0.10487 c -1.73031,-0.23595 -2.85764,-1.70408 -3.11981,-3.35574 -1.96626,-11.71894 -8.70399,-21.05212 -19.9248,-21.41917 -17.85368,0.57677 -22.93973,22.54648 -22.93973,39.45634 0,16.28067 4.24713,40.05936 22.10079,40.63613"
         id="path26"
         style="fill:#221f1f;fill-rule:evenodd;stroke:none"
         inkscape:connector-curvature="0" />
      <path
         d="m 147.67545,702.30829 c 0,7.26206 0.18352,13.31815 -3.48684,19.7675 -2.9625,5.24338 -7.68153,8.46805 -12.89868,8.46805 -7.1572,0 -11.35189,-5.45312 -11.35189,-13.50169 0,-15.8874 14.23574,-18.77125 27.73741,-18.77125 l 0,4.03739 m 18.79748,45.43378 c -1.23218,1.10111 -3.01494,1.17976 -4.40443,0.4457 -6.18718,-5.1385 -7.3145,-7.52423 -10.69647,-12.42678 -10.22457,10.4343 -17.48665,13.55409 -30.72615,13.55409 -15.70389,0 -27.894719,-9.67401 -27.894719,-29.04824 0,-15.12713 8.179669,-25.43035 19.872379,-30.46398 10.1197,-4.45688 24.25056,-5.24337 35.05191,-6.47556 l 0,-2.41195 c 0,-4.43066 0.34082,-9.67403 -2.28086,-13.50167 -2.25465,-3.43442 -6.60666,-4.85013 -10.46052,-4.85013 -7.10478,0 -13.42302,3.64414 -14.96983,11.19459 -0.3146,1.67789 -1.54678,3.32955 -3.25089,3.4082 l -18.063399,-1.94006 c -1.52058,-0.3408 -3.22467,-1.57301 -2.77898,-3.90629 4.142259,-21.91728 23.962199,-28.52394 41.684769,-28.52394 9.07104,0 20.92105,2.41195 28.07825,9.28076 9.07102,8.46804 8.20587,19.7675 8.20587,32.06321 l 0,29.04826 c 0,8.73022 3.61792,12.55786 7.02611,17.27691 1.17977,1.67786 1.44194,3.69656 -0.0787,4.95497 -3.80144,3.17225 -10.56539,9.07104 -14.28818,12.37436 l -0.0262,-0.0525"
         id="path28"
         style="fill:#221f1f;fill-rule:evenodd;stroke:none"
         inkscape:connector-curvature="0" />
      <path
         d="m -96.691739,702.30829 c 0,7.26206 0.1835,13.31815 -3.486841,19.7675 -2.96252,5.24338 -7.65533,8.46805 -12.8987,8.46805 -7.1572,0 -11.32567,-5.45312 -11.32567,-13.50169 0,-15.8874 14.23574,-18.77125 27.711211,-18.77125 l 0,4.03739 m 18.79747,45.43378 c -1.23219,1.10111 -3.01495,1.17976 -4.40444,0.4457 -6.18716,-5.1385 -7.28828,-7.52423 -10.69647,-12.42678 -10.224571,10.4343 -17.460401,13.55409 -30.726141,13.55409 -15.67768,0 -27.89471,-9.67401 -27.89471,-29.04824 0,-15.12713 8.20587,-25.43035 19.87236,-30.46398 10.1197,-4.45688 24.25058,-5.24337 35.051931,-6.47556 l 0,-2.41195 c 0,-4.43066 0.34082,-9.67403 -2.25465,-13.50167 -2.280881,-3.43442 -6.632861,-4.85013 -10.460531,-4.85013 -7.10475,0 -13.44924,3.64414 -14.99603,11.19459 -0.31461,1.67789 -1.5468,3.32955 -3.22467,3.4082 l -18.08962,-1.94006 c -1.52058,-0.3408 -3.19846,-1.57301 -2.77899,-3.90629 4.16848,-21.91728 23.96219,-28.52394 41.68479,-28.52394 9.071011,0 20.921021,2.41195 28.078221,9.28076 9.07104,8.46804 8.20587,19.7675 8.20587,32.06321 l 0,29.04826 c 0,8.73022 3.61794,12.55786 7.02613,17.27691 1.20597,1.67786 1.46814,3.69656 -0.05244,4.95497 -3.80144,3.17225 -10.56538,9.07104 -14.28819,12.37436 l -0.05242,-0.0525"
         id="path30"
         style="fill:#221f1f;fill-rule:evenodd;stroke:none"
         inkscape:connector-curvature="0" />
    </g>
  </g>
  <path
     style="font-style:normal;font-weight:normal;font-size:149.15028381px;line-height:125%;font-family:sans-serif;letter-spacing:0px;word-spacing:0px;fill:#4fa3c3;fill-opacity:1;stroke:none;stroke-width:1px;stroke-linecap:butt;stroke-linejoin:miter;stroke-opacity:1"
     d="m 446.14844,110.41797 c -12.69157,0 -20.9666,0.24814 -24.82617,0.74219 -1.582,0.19762 -2.45631,0.76442 -2.62305,1.70312 l -0.21875,1.03906 c -3.48592,17.09418 -7.39589,33.39695 -11.72852,48.91016 -1.53159,5.48397 -3.93137,13.73461 -7.19922,24.75195 -3.20633,10.96794 -5.57582,19.19377 -7.10742,24.67774 -0.40014,1.43275 0.0929,2.14843 1.47657,2.14843 2.91047,0 7.2556,0.0744 13.03515,0.22266 5.76575,0.19762 10.1032,0.29688 13.01367,0.29688 1.00197,0 1.66116,-0.56876 1.97852,-1.70508 0.62092,-2.22323 1.34566,-5.58226 2.17187,-10.07813 0.82622,-4.49586 1.55669,-7.8797 2.19141,-10.15234 0.51053,-1.82799 1.79211,-2.74219 3.84375,-2.74219 1.90851,0 4.73635,0.12407 8.48437,0.3711 3.80954,0.19762 6.66767,0.29687 8.57618,0.29687 11.40333,0 21.44607,-3.92779 30.1289,-11.7832 8.12924,-7.41077 13.86397,-17.09474 17.20313,-29.05078 3.25636,-11.65961 2.3614,-21.09545 -2.68555,-28.3086 -4.959,-7.01553 -13.04454,-10.69713 -24.25586,-11.04297 -6.81543,-0.19762 -13.96809,-0.29687 -21.45898,-0.29687 z m 138.42773,2.00195 c -3.81701,0 -7.40347,1.13557 -10.75781,3.4082 -3.64809,2.47026 -6.00968,5.63273 -7.08594,9.48633 -1.13145,4.05122 -0.59693,7.26137 1.60352,9.63282 2.01708,2.17382 5.02924,3.26171 9.03711,3.26171 9.35168,0 15.22802,-4.29804 17.6289,-12.89453 1.06246,-3.80419 0.48424,-6.94185 -1.73633,-9.41211 -2.0711,-2.32204 -4.96786,-3.48242 -8.68945,-3.48242 z m -130.33789,21.56446 c 10.83078,0 14.6388,5.75618 11.42383,17.26757 -3.0218,10.81973 -9.7108,16.22852 -20.06445,16.22852 -8.58829,0 -12.74276,-0.49237 -12.4668,-1.48047 0.42774,-1.53156 0.98322,-3.77983 1.66797,-6.74414 0.74626,-3.01371 1.33397,-5.2868 1.76172,-6.81836 3.008,-10.77032 4.76788,-16.47687 5.28125,-17.11914 0.63007,-0.88929 4.76245,-1.33398 12.39648,-1.33398 z m 309.82617,5.11328 c -10.87849,0 -20.66012,3.75604 -29.34179,11.26562 -8.42183,7.26255 -14.219,16.57432 -17.39258,27.9375 -3.25637,11.65961 -2.27777,20.97333 2.93359,27.93945 5.04811,6.86732 13.24985,10.30079 24.60547,10.30079 12.26216,0 22.20743,-3.23692 29.83594,-9.70899 0.93646,-0.79048 1.45224,-1.35729 1.54883,-1.70312 0.34495,-1.23513 -0.0401,-4.12661 -1.15625,-8.67188 -1.06849,-4.54527 -2.03446,-7.06454 -2.89844,-7.55859 l -6.4336,3.55664 c -4.95645,2.37144 -9.55825,3.55859 -13.80468,3.55859 -3.53074,0 -6.4862,-0.69283 -8.86719,-2.07617 -2.91846,-1.67977 -4.26406,-4.1246 -4.03516,-7.33594 11.41314,-0.88929 20.02452,-1.65461 25.83399,-2.29687 9.62765,-0.9881 14.71905,-1.53205 15.27148,-1.63086 3.2945,-0.69167 5.63764,-3.53352 7.03125,-8.52344 2.66305,-9.53519 1.76449,-17.76102 -2.69726,-24.67773 -4.46176,-6.91672 -11.27276,-10.375 -20.4336,-10.375 z m -111.76757,1.70507 c -4.29415,0 -8.53239,0.9142 -12.7168,2.74219 -2.83981,1.28454 -6.89038,3.65492 -12.15039,7.11328 -0.75825,0.49405 -1.40323,0.84145 -1.93555,1.03907 -0.33399,0 -0.0489,-1.70433 0.85547,-5.11329 0.91816,-3.45835 0.92412,-5.1875 0.0176,-5.1875 -1.43138,0 -3.41227,0.34544 -5.94336,1.03711 -3.55434,0.9387 -5.58317,1.45783 -6.08789,1.55664 -0.69558,0.0988 -2.88161,0.32018 -6.55664,0.66602 -2.99327,0.29643 -5.07614,0.66668 -6.25,1.11133 -0.75077,0.29643 -1.24395,0.86519 -1.47852,1.70508 -0.0828,0.29643 -0.16031,0.74112 -0.23047,1.33398 -1.68352,10.12805 -3.65507,19.24326 -5.91797,27.3457 -1.10385,3.95241 -2.78364,9.88034 -5.03906,17.78516 -2.24162,7.85541 -3.91568,13.76048 -5.01953,17.71289 -0.34495,1.23513 -0.45584,1.97563 -0.33398,2.22266 0.16957,0.24702 0.81218,0.41876 1.92968,0.51757 3.73423,0.29644 7.10543,0.44532 10.11133,0.44532 4.62813,0 8.04383,-0.0993 10.2461,-0.29688 1.22041,-0.0988 2.01374,-0.29536 2.38281,-0.59179 0.36906,-0.29644 0.72731,-1.06175 1.07226,-2.29688 1.24184,-4.44646 3.08736,-11.14166 5.53711,-20.08398 2.44976,-8.94233 4.30296,-15.66234 5.5586,-20.15821 0.56572,-2.02561 2.43865,-3.9513 5.62109,-5.77929 2.90248,-1.67978 5.40455,-2.51953 7.50391,-2.51953 5.20068,0 6.81298,3.53272 4.83984,10.59765 -0.52433,1.8774 -1.25588,4.66766 -2.19531,8.37305 -0.93944,3.70538 -1.6633,6.47279 -2.17383,8.30078 -0.66231,2.37145 -1.71413,5.87936 -3.1543,10.52344 -1.44016,4.64408 -2.4843,8.12717 -3.13281,10.44922 -0.56572,2.02561 -0.18166,3.0371 1.1543,3.0371 l 21.68554,0 c 1.38367,0 2.30443,-0.81494 2.75977,-2.44531 0.66231,-2.37144 1.57645,-5.90417 2.74414,-10.59765 1.18149,-4.7429 2.09563,-8.27367 2.74414,-10.59571 2.81483,-10.07864 4.60853,-16.15545 5.37891,-18.23047 0.90087,-2.37144 2.71826,-4.52046 5.45117,-6.44726 2.79442,-1.97621 5.31219,-2.96484 7.55469,-2.96484 5.10525,0 6.9807,2.93914 5.625,8.81835 -0.83022,3.65598 -2.45251,9.80723 -4.86719,18.45313 -0.63472,2.27264 -1.6597,5.68129 -3.07227,10.22656 -1.39877,4.49587 -2.41411,7.87971 -3.04883,10.15235 -0.59332,2.12442 -0.21577,3.33442 1.13282,3.63085 1.34859,0.29644 4.93296,0.44532 10.7539,0.44532 5.6301,0 9.18726,-0.0993 10.67383,-0.29688 1.48657,-0.19762 2.47214,-1.15949 2.95508,-2.88867 0.86928,-3.11252 2.10184,-7.78277 3.69727,-14.00781 1.60922,-6.27445 2.84751,-10.96756 3.71679,-14.08008 0.73131,-2.61847 1.90012,-6.54626 3.50586,-11.7832 1.61954,-5.28635 2.79604,-9.23895 3.52735,-11.85742 1.76616,-6.32386 0.88252,-11.19066 -2.6504,-14.59961 -3.11846,-3.01372 -7.82692,-4.51954 -14.125,-4.51954 -4.19871,0 -8.85536,1.21001 -13.96874,3.63086 -5.11339,2.42085 -9.43089,5.40963 -12.95313,8.9668 1.4e-4,-4.10062 -1.61569,-7.28596 -4.8457,-9.55859 -2.86959,-2.02561 -6.49911,-3.03907 -10.88867,-3.03907 z m -123.79493,0.44532 c -0.23856,0 -4.34029,0.76531 -12.30664,2.29687 -5.27831,0.79048 -9.27153,1.33443 -11.97851,1.63086 -0.78468,0.24703 -1.27936,0.73939 -1.48633,1.48047 -0.0828,0.29643 -0.13921,0.66864 -0.16797,1.11328 -0.0457,7.50958 -1.69103,17.06948 -4.93359,28.67969 -1.10386,3.95241 -2.78169,9.88034 -5.03711,17.78516 -2.24162,7.85541 -3.91568,13.75852 -5.01953,17.71093 -0.40015,1.43275 0.16036,2.24769 1.67968,2.44531 2.63684,0.29644 6.22121,0.44532 10.75391,0.44532 4.72355,0 8.25811,-0.0993 10.60352,-0.29688 1.61591,-0.14821 2.58876,-0.81427 2.91992,-2 0.38635,-1.38334 0.87701,-3.48273 1.47265,-6.29883 0.60945,-2.86549 1.11548,-5.01451 1.51563,-6.44726 0.59332,-2.12442 1.44186,-5.33652 2.54687,-9.63477 1.16653,-4.34765 2.04731,-7.58261 2.64063,-9.70703 1.09005,-3.903 2.53018,-6.49671 4.32031,-7.78125 1.79013,-1.28453 4.66485,-1.92773 8.625,-1.92773 0.85883,0 2.12647,0.0744 3.80273,0.22265 1.73778,0.0988 3.06026,0.14844 3.9668,0.14844 2.05165,0 3.34664,-0.96382 3.88477,-2.89062 0.26216,-0.9387 0.75203,-2.86635 1.4707,-5.78125 0.6146,-2.37145 1.12134,-4.27233 1.52149,-5.70508 0.39266,-1.23513 1.12644,-3.26203 2.19921,-6.07813 1.01758,-2.61847 1.72486,-4.64342 2.125,-6.07617 0.33116,-1.18572 -0.83785,-1.7793 -3.50976,-1.7793 -4.24643,0 -9.02617,1.30927 -14.33789,3.92774 -4.8073,2.33115 -7.14972,3.60248 -7.04492,3.81836 -0.51036,-0.17895 -0.47686,-1.71091 0.11523,-4.63281 0.63072,-3.11253 0.51703,-4.66797 -0.3418,-4.66797 z m 34.70313,2.59375 c -1.28824,0 -2.07169,0.49236 -2.34766,1.48047 -0.069,0.24702 -0.16567,0.76615 -0.29101,1.55664 -1.26842,8.30006 -3.86258,19.46699 -7.78125,33.49804 -0.96588,3.45836 -2.47798,8.62097 -4.53907,15.48828 -2.04728,6.81791 -3.54792,11.93089 -4.5,15.33985 -0.35875,1.28453 -0.51679,2.02503 -0.47656,2.22265 0.11438,0.44465 0.66762,0.76527 1.66211,0.96289 1.53944,0.29644 5.17292,0.44532 10.89844,0.44532 5.67781,0 9.3692,-0.14888 11.07422,-0.44532 1.24801,-0.19762 2.01688,-0.81405 2.30664,-1.85156 0.99347,-3.55717 2.41206,-8.89347 4.25586,-16.00781 1.85759,-7.16374 3.28961,-12.54772 4.29687,-16.1543 3.54613,-12.69711 7.18937,-23.86404 10.92969,-33.49804 0.3024,-0.74108 0.48192,-1.21059 0.53711,-1.40821 0.27596,-0.9881 -0.15958,-1.48047 -1.30469,-1.48047 -1.38367,0 -3.49375,0.12212 -6.33008,0.36915 -2.83632,0.24702 -4.94641,0.37109 -6.33008,0.37109 -1.38366,0 -3.41701,-0.14888 -6.10156,-0.44531 -2.63683,-0.29643 -4.62303,-0.44336 -5.95898,-0.44336 z m 192.76953,14.22851 c 2.91047,0 5.09017,1.16038 6.54101,3.48242 1.45085,2.32205 1.74807,5.01501 0.89258,8.07813 -0.15178,0.54346 -1.04789,0.93852 -2.6914,1.18555 -7.76054,1.13631 -13.40677,1.70507 -16.9375,1.70507 -1.33596,0 -1.81787,-0.66801 -1.44532,-2.00195 0.91068,-3.26074 2.61042,-6.10063 5.09961,-8.52148 2.68753,-2.61847 5.53512,-3.92774 8.54102,-3.92774 z"
     id="text4240"
     inkscape:connector-curvature="0" />
</svg>
