<?xml version="1.0" encoding="iso-8859-1"?>
<!-- Generator: Adobe Illustrator 13.0.0, SVG Export Plug-In . SVG Version: 6.00 Build 14948)  -->
<!DOCTYPE svg PUBLIC "-//W3C//DTD SVG 1.1//EN" "http://www.w3.org/Graphics/SVG/1.1/DTD/svg11.dtd">
<svg version="1.1" id="Layer_1" xmlns="http://www.w3.org/2000/svg" xmlns:xlink="http://www.w3.org/1999/xlink" x="0px" y="0px"
	 width="300px" height="100px" viewBox="0 0 300 100" style="enable-background:new 0 0 300 100;" xml:space="preserve">
<linearGradient id="SVGID_1_" gradientUnits="userSpaceOnUse" x1="150.0015" y1="1.3789" x2="150.0015" y2="98.6216">
	<stop  offset="0" style="stop-color:#A3CC39"/>
	<stop  offset="0.698" style="stop-color:#85BD40"/>
	<stop  offset="1" style="stop-color:#65AD45"/>
</linearGradient>
<path style="fill:url(#SVGID_1_);" d="M297.5,31.698h-23.491v39.196c0,1.772-0.683,3.275-1.774,4.508
	c-1.094,1.093-2.596,1.639-4.367,1.771H254.21c-1.912-0.137-3.415-0.683-4.507-1.771c-1.096-1.229-1.775-2.731-1.775-4.508V31.698
	h-23.49v41.245c0.138,5.464,1.095,10.242,3.416,14.063c2.318,3.826,5.324,6.693,9.285,8.604c4.098,1.912,8.74,3.009,14.065,3.009
	h22.81v-0.272c4.918,0,9.149-1.095,12.7-3.143c3.413-2.188,6.146-5.188,7.923-9.018c1.909-3.822,2.866-8.332,2.866-13.248
	L297.5,31.698z M62.456,34.157c-4.098-1.775-8.604-2.595-13.521-2.459h-15.16l-5.872,0.684c-1.366,0.409-2.049,0.683-2.049,0.683
	V1.379H2.5v97.242h23.354V59.286c0.137-1.64,0.683-3.277,1.912-4.37s2.595-1.775,4.507-1.775h13.658c1.638,0,3.141,0.687,4.37,1.775
	c1.229,1.093,1.774,2.73,1.911,4.37v39.335h23.354V56.283c0-5.874-1.229-10.653-3.551-14.341
	C69.559,38.391,66.417,35.796,62.456,34.157z M141.941,70.895c-0.137,1.772-0.683,3.275-1.775,4.508
	c-1.23,1.093-2.732,1.639-4.507,1.771h-13.658c-1.775-0.137-3.277-0.683-4.37-1.771c-1.229-1.229-1.775-2.731-1.912-4.508V31.698
	H92.365v41.245c0,5.464,1.093,10.242,3.278,14.063c2.185,3.826,5.326,6.693,9.287,8.604c4.097,1.912,8.604,3.009,14.066,3.009
	h22.945v-0.272c4.917,0,9.149-1.095,12.564-3.143c3.414-2.188,6.146-5.188,8.06-9.018c1.773-3.822,2.731-8.332,2.867-13.248V31.698
	h-23.491V70.895z M183.188,98.621h23.354V1.379h-23.354V98.621z"/>
</svg>
