<?xml version="1.0" encoding="UTF-8" standalone="no"?>
<svg
   xmlns:dc="http://purl.org/dc/elements/1.1/"
   xmlns:cc="http://creativecommons.org/ns#"
   xmlns:rdf="http://www.w3.org/1999/02/22-rdf-syntax-ns#"
   xmlns:svg="http://www.w3.org/2000/svg"
   xmlns="http://www.w3.org/2000/svg"
   viewBox="0 0 288 97.333336"
   height="97.333336"
   width="288"
   xml:space="preserve"
   id="svg2"
   version="1.1"><metadata
     id="metadata8"><rdf:RDF><cc:Work
         rdf:about=""><dc:format>image/svg+xml</dc:format><dc:type
           rdf:resource="http://purl.org/dc/dcmitype/StillImage" /></cc:Work></rdf:RDF></metadata><defs
     id="defs6"><clipPath
       id="clipPath20"
       clipPathUnits="userSpaceOnUse"><path
         id="path18"
         d="M 0,721.461 H 2160 V 1.46094 H 0 Z" /></clipPath></defs><g
     transform="matrix(1.3333333,0,0,-1.3333333,0,97.333333)"
     id="g10"><g
       transform="scale(0.1)"
       id="g12"><g
         id="g14"><g
           clip-path="url(#clipPath20)"
           id="g16"><path
             id="path22"
             style="fill:#66aa33;fill-opacity:1;fill-rule:nonzero;stroke:none"
             d="M 339.531,499.43 H 229.488 c -38.59,0 -57.968,-10.391 -57.968,-10.391 V 721.457 H 0 V 10.0078 H 171.52 V 297.078 c 0,25.399 20.589,45.942 45.941,45.942 h 99.84 c 25.398,0 45.937,-20.543 45.937,-45.942 V 10.0078 H 534.801 V 319.309 c 0,130.078 -86.711,180.121 -195.27,180.121 m 1648.869,0 V 212.398 c 0,-25.429 -20.55,-46.019 -45.94,-46.019 h -99.8 c -25.43,0 -45.98,20.59 -45.98,46.019 V 499.43 H 1625.12 V 198.059 c 0,-123.1606 78.83,-188.0512 195.31,-188.0512 h 167.97 v 0.8594 c 107.3,0 171.56,76.3711 171.56,187.1918 V 499.43 Z M 1020.7,212.398 c 0,-25.429 -20.58,-46.019 -45.97,-46.019 h -99.808 c -25.391,0 -45.942,20.59 -45.942,46.019 V 499.43 H 657.422 V 198.059 C 657.422,74.8984 736.25,10.0078 852.77,10.0078 h 167.93 v 0.8594 c 107.35,0 171.57,76.3711 171.57,187.1918 V 499.43 H 1020.7 Z M 1323.01,10.0078 h 171.56 V 721.457 h -171.56 z" /></g></g></g></g></svg>